#!OML:ASF E:\acrobat2\Project_11_07_03\Capture day 1\Session 1\Acrobat.ASF
:FULLY-SPECIFIED
:DEGREES
757
root 1.31672 17.9423 28.2624 352.753 -84.9601 16.2223
lowerback -5.69302 0.730627 -1.54964
upperback -3.60274 0.95157 -2.14266
thorax -0.505114 0.438852 -1.2823
lowerneck -1.50904 -2.44723 0.508154
upperneck 1.65201 -3.34025 2.61492
head 0.791218 -1.64571 0.67659
rclavicle -2.95692e-015 2.38542e-015
rhumerus -14.2044 -37.0737 0.557238
rradius 20.8924
rwrist 12.0453
rhand -14.1106 -48.6428
rfingers 7.12502
rthumb 12.0225 -438.277
lclavicle -2.95692e-015 2.38542e-015
lhumerus 2.90511 14.014 -0.504572
lradius 22.4844
lwrist 12.2559
lhand -14.4377 -8.55305
lfingers 7.12502
lthumb 11.707 21.0998
rfemur 10.4456 27.3388 10.4453
rtibia -6.07711
rfoot -46.6199 -35.4159
rtoes 22.2545
lfemur 6.82955 -13.0524 -9.27338
ltibia -5.41343
lfoot -31.8176 5.67296
ltoes 45.0088
758
root 1.32664 17.9429 28.2618 353.115 -84.9641 15.8452
lowerback -5.64111 0.716659 -1.54518
upperback -3.59497 0.932401 -2.1149
thorax -0.526481 0.429947 -1.25778
lowerneck -1.62612 -2.38333 0.540445
upperneck 1.8466 -3.26256 2.60701
head 0.869653 -1.60376 0.667452
rclavicle -3.17869e-014 5.20816e-014
rhumerus -14.1984 -35.2116 0.370098
rradius 21.3042
rwrist 10.1954
rhand -14.0164 -49.0822
rfingers 7.12502
rthumb 12.1133 -438.712
lclavicle -3.17869e-014 5.20816e-014
lhumerus 2.88195 14.3623 -0.387201
lradius 22.5204
lwrist 11.8973
lhand -14.603 -8.50948
lfingers 7.12502
lthumb 11.5476 21.1524
rfemur 10.3896 27.1477 10.4227
rtibia -6.0357
rfoot -46.5436 -35.1793
rtoes 22.5922
lfemur 6.82267 -13.0341 -9.21955
ltibia -5.4241
lfoot -31.7722 5.72982
ltoes 45.0107
759
root 1.3365 17.9424 28.2592 354.095 -85.001 14.8933
lowerback -5.62159 0.725268 -1.49606
upperback -3.61198 0.941087 -2.06844
thorax -0.554602 0.434278 -1.23749
lowerneck -1.48033 -2.31642 0.479661
upperneck 1.76995 -3.16814 2.62759
head 0.821764 -1.55869 0.687058
rclavicle -4.83295e-015 4.37326e-015
rhumerus -14.1636 -34.7943 0.317172
rradius 21.5082
rwrist 9.86708
rhand -13.9551 -49.341
rfingers 7.12502
rthumb 12.1724 -438.967
lclavicle -4.83295e-015 4.37326e-015
lhumerus 2.90782 14.8554 -0.189749
lradius 22.513
lwrist 11.3296
lhand -14.8041 -8.66856
lfingers 7.12502
lthumb 11.3537 21.0041
rfemur 10.2393 26.9993 10.4553
rtibia -5.8755
rfoot -46.9009 -34.3699
rtoes 24.5494
lfemur 6.74767 -13.096 -9.10477
ltibia -5.38488
lfoot -31.8291 5.8864
ltoes 44.7296
760
root 1.34607 17.9428 28.2568 354.712 -85.0371 14.2824
lowerback -5.60971 0.742672 -1.44294
upperback -3.59892 0.962765 -2.05832
thorax -0.546686 0.444724 -1.25579
lowerneck -1.39228 -2.37431 0.431527
upperneck 1.61023 -3.23856 2.62543
head 0.759176 -1.59647 0.695281
rclavicle 9.31803e-017 -1.27222e-014
rhumerus -14.1554 -34.9328 0.286875
rradius 21.5968
rwrist 10.1752
rhand -13.4899 -49.3648
rfingers 7.12502
rthumb 12.6209 -438.963
lclavicle 9.31803e-017 -1.27222e-014
lhumerus 2.85244 14.7762 -0.151869
lradius 22.6385
lwrist 11.3972
lhand -15.0046 -8.75864
lfingers 7.12502
lthumb 11.1604 20.9246
rfemur 10.1179 26.8901 10.4594
rtibia -5.75834
rfoot -46.512 -34.6192
rtoes 23.2911
lfemur 6.70256 -13.1349 -9.03399
ltibia -5.37211
lfoot -31.8572 6.03073
ltoes 44.3842
761
root 1.356 17.9441 28.2562 355.338 -84.9916 13.5403
lowerback -5.45922 0.735709 -1.35707
upperback -3.57174 0.948376 -2.06747
thorax -0.600767 0.437055 -1.31566
lowerneck -1.41108 -2.45825 0.489459
upperneck 1.59448 -3.35057 2.57723
head 0.756645 -1.65256 0.669453
rclavicle 2.01766e-014 9.93923e-015
rhumerus -14.215 -34.4888 0.248639
rradius 21.7467
rwrist 10.0055
rhand -12.7361 -49.3157
rfingers 7.12502
rthumb 13.3476 -438.868
lclavicle 2.01766e-014 9.93923e-015
lhumerus 2.81543 14.5141 -0.155008
lradius 22.7025
lwrist 11.6209
lhand -15.2093 -8.95681
lfingers 7.12502
lthumb 10.9629 20.737
rfemur 10.2291 26.9201 10.5859
rtibia -5.79199
rfoot -46.2141 -35.107
rtoes 22.1229
lfemur 6.792 -13.175 -8.99041
ltibia -5.40595
lfoot -31.869 5.79527
ltoes 44.8416
762
root 1.36566 17.9453 28.2559 356.195 -84.892 12.6093
lowerback -5.37447 0.692889 -1.28365
upperback -3.55712 0.887967 -2.0395
thorax -0.632767 0.406669 -1.33183
lowerneck -1.39939 -2.51487 0.595968
upperneck 1.57315 -3.42361 2.4112
head 0.74326 -1.69 0.600384
rclavicle -1.12935e-014 1.78906e-014
rhumerus -14.0967 -34.8718 0.224779
rradius 21.6938
rwrist 10.6529
rhand -12.1642 -49.2639
rfingers 7.12502
rthumb 13.8988 -438.779
lclavicle -1.12935e-014 1.78906e-014
lhumerus 2.71807 14.4505 -0.0931338
lradius 22.7851
lwrist 11.5108
lhand -15.4481 -9.17165
lfingers 7.12502
lthumb 10.7326 20.5342
rfemur 10.3027 26.9284 10.7217
rtibia -5.81361
rfoot -47.309 -33.5281
rtoes 26.8847
lfemur 6.79969 -13.1798 -8.90247
ltibia -5.39573
lfoot -31.7761 5.76523
ltoes 44.8679
763
root 1.37432 17.9459 28.2539 356.23 -84.8609 12.5918
lowerback -5.45278 0.670488 -1.3186
upperback -3.51165 0.864054 -1.99886
thorax -0.543867 0.39604 -1.27032
lowerneck -1.35144 -2.55309 0.578903
upperneck 1.40221 -3.46606 2.29052
head 0.680639 -1.71405 0.567436
rclavicle 1.16724e-014 0
rhumerus -13.8541 -36.5394 0.239577
rradius 21.4784
rwrist 12.5535
rhand -11.8024 -49.2377
rfingers 7.12502
rthumb 14.2474 -438.729
lclavicle 1.16724e-014 0
lhumerus 2.64219 15.0485 0.167281
lradius 22.9101
lwrist 10.6321
lhand -15.4008 -9.20188
lfingers 7.12502
lthumb 10.7781 20.5016
rfemur 10.2032 26.768 10.6608
rtibia -5.71766
rfoot -46.6057 -34.3774
rtoes 23.974
lfemur 6.73394 -13.2159 -8.89382
ltibia -5.36767
lfoot -31.7777 6.00081
ltoes 44.3425
764
root 1.38361 17.9468 28.2515 356.55 -84.8705 12.237
lowerback -5.47699 0.700427 -1.27377
upperback -3.43798 0.906586 -2.01146
thorax -0.453046 0.417265 -1.30541
lowerneck -1.33304 -2.57115 0.499262
upperneck 1.27809 -3.48784 2.40942
head 0.643665 -1.72592 0.617662
rclavicle -1.12686e-014 -9.14409e-015
rhumerus -14.0417 -35.7461 0.177762
rradius 21.8476
rwrist 12.0886
rhand -11.3131 -49.6672
rfingers 7.12502
rthumb 14.7189 -439.125
lclavicle -1.12686e-014 -9.14409e-015
lhumerus 2.74318 15.7371 0.472557
lradius 22.9799
lwrist 9.65413
lhand -15.2265 -9.18635
lfingers 7.12502
lthumb 10.9463 20.5083
rfemur 10.1685 26.6421 10.6687
rtibia -5.64262
rfoot -46.1585 -34.8513
rtoes 22.2902
lfemur 6.77855 -13.3773 -8.87901
ltibia -5.41567
lfoot -31.9957 5.86845
ltoes 44.7001
765
root 1.39499 17.9476 28.2487 357.212 -84.8592 11.5095
lowerback -5.42161 0.715585 -1.18029
upperback -3.40152 0.923878 -2.02269
thorax -0.444261 0.425142 -1.36883
lowerneck -1.31096 -2.57722 0.389921
upperneck 1.30379 -3.49873 2.61337
head 0.654618 -1.73056 0.698234
rclavicle -1.00573e-014 -3.18055e-015
rhumerus -14.3937 -33.1234 -0.00969883
rradius 22.5811
rwrist 9.86584
rhand -10.4676 -50.136
rfingers 7.12502
rthumb 15.5334 -439.532
lclavicle -1.00573e-014 -3.18055e-015
lhumerus 2.77548 15.8246 0.653305
lradius 22.9919
lwrist 9.35303
lhand -15.2629 -9.25962
lfingers 7.12502
lthumb 10.9112 20.4369
rfemur 10.1514 26.4201 10.6972
rtibia -5.62891
rfoot -45.4281 -35.4217
rtoes 20.3174
lfemur 6.84351 -13.493 -8.82096
ltibia -5.45776
lfoot -32.1211 5.61434
ltoes 45.242
